<?xml version="1.0" encoding="UTF-8"?>
<svg version="1.1" xmlns="http://www.w3.org/2000/svg" width="200" height="200">
<path d="M0 0 C66 0 132 0 200 0 C200 66 200 132 200 200 C134 200 68 200 0 200 C0 134 0 68 0 0 Z " fill="#1B57FD" transform="translate(0,0)"/>
<path d="M0 0 C9.57 0 19.14 0 29 0 C29.0093457 2.86099365 29.01869141 5.7219873 29.02832031 8.66967773 C29.06214575 18.1413244 29.11772581 27.61275446 29.18390274 37.08422756 C29.22334689 42.82463634 29.25555054 48.56489242 29.27099609 54.30541992 C29.28618261 59.84935973 29.3206642 65.39287963 29.36830902 70.93663216 C29.38310214 73.0475912 29.39103982 75.15861019 29.39188385 77.2696209 C29.39426144 80.2354554 29.42140541 83.20013692 29.45410156 86.16577148 C29.4490712 87.0310849 29.44404083 87.89639832 29.43885803 88.78793335 C29.5683965 96.42395164 31.54092066 102.54092066 37 108 C50.36835577 112.53252206 50.36835577 112.53252206 79 111 C79 74.37 79 37.74 79 0 C88.57 0 98.14 0 108 0 C108 43.89 108 87.78 108 133 C92.46897063 136.10620587 78.48773262 138.39182431 62.80834961 138.42553711 C60.20135526 138.43743676 57.59673298 138.48679087 54.99023438 138.53710938 C40.56305663 138.6754924 25.54491475 136.52094043 14 127 C7.40876273 120.069591 2.97205533 113.02238936 1.33081055 103.51391602 C1.20426684 102.78104905 1.07772314 102.04818209 0.94734478 101.29310703 C-0.57770506 91.49834174 -0.37233631 81.66273926 -0.29296875 71.77734375 C-0.28735788 69.69414072 -0.28309485 67.61093366 -0.28010559 65.52772522 C-0.26877408 60.10432571 -0.23941074 54.68117591 -0.20599365 49.25787354 C-0.17503738 43.69994482 -0.16154621 38.14197487 -0.14648438 32.58398438 C-0.1145272 21.72253015 -0.06185807 10.86132512 0 0 Z " fill="#FBFBFD" transform="translate(46,31)"/>
</svg>
